<svg width="70" height="427" viewBox="0 0 70 427" fill="none" xmlns="http://www.w3.org/2000/svg">
<path d="M10.3764 50.344H1.86133L10.3764 30.5667C15.6796 26.4639 18.6962 23.7687 24.1657 18.2058C37.6254 -6.68064 62.7316 -3.82392 67.1266 26.5563M10.3764 50.344L19.8806 31.8852C21.7161 28.8819 22.2935 28.8819 22.5175 31.8852L21.8773 39.8525M10.3764 50.344L21.8773 39.8525M29.3297 50.344H21.0342L21.8773 39.8525M29.3297 50.344L35.5376 29.9074C33.6883 25.8426 33.1024 23.3339 33.3401 18.2058C45.2616 -7.72446 63.5786 2.03114 67.1266 26.5563M29.3297 50.344L39.2184 37.214C40.2745 35.5633 40.7019 33.4234 39.2184 30.8414M39.2184 30.8414C35.5376 14.0306 63.2669 -0.124022 67.1266 26.5563M39.2184 30.8414C46.1779 8.13223 56.8054 23.7495 54.1118 54.2685L41.087 381.121C41.7854 394.743 42.0369 402.321 38.4166 409.479L43.3972 419.595L48.7553 420.511V412.364L57.5086 423.932L63.0676 425.337M39.2184 30.8414C45.3136 10.1032 63.9703 11.6468 61.3205 53.7224L47.1415 382.13C46.75 398.01 47.7656 406.078 58.0121 414.769L63.0676 425.337M67.1266 26.5563L68.3586 54.8707L53.5324 381.121C53.0651 395.308 54.0254 402.411 63.7825 409.479L63.0676 425.337" stroke="black" stroke-width="2"/>
</svg>
