<svg width="175" height="194" viewBox="0 0 175 194" fill="none" xmlns="http://www.w3.org/2000/svg">
<path d="M52.0494 186.689C58.6959 185.009 60.2601 163.389 60.2601 160.528C57.0649 160.11 54.0121 159.464 51.0999 158.606C49.3798 164.151 49 167.459 48.624 173.462C42.1892 164.412 31.981 159.854 29.2613 161.417C25.4633 166.603 37.5877 183.548 52.0494 186.689Z" fill="white"/>
<path d="M156.003 73.8428C161.068 68.4396 162.062 66.4848 162.421 63.8208C168.036 64.4007 171.003 67.0779 167.762 72.9999C172.786 76.7374 173.027 79.8574 169.132 84.7678C173.721 88.3342 174.957 90.8121 167.652 98.634L154.025 104.172C152.659 100.811 152.838 98.6353 153.488 94.6525L148.179 96.7879C147.142 93.6171 147.254 91.5173 148.478 87.2953L144.355 88.9637C143.011 85.8749 143.167 83.5595 144.946 78.4627C149.695 76.5454 152.332 75.4285 156.003 73.8428Z" fill="white"/>
<path d="M69.5315 125.228C70.8435 130.251 70.4378 134.55 67.5248 135.456C63.8496 135.456 63.133 131.85 62.1634 126.97L62.1517 126.911M10.5774 64.3021C34.8352 63.5482 46.7471 61.2847 64.2995 55.2581M32.014 33.892C25.575 46.7821 19.6318 51.741 19.8832 53.6669C19.8832 57.5534 27.8136 57.3815 32.014 56.3229C35.7737 55.3753 36.8331 52.3516 36.8331 51.1743C36.8331 48.6817 32.8135 49.1153 30.704 50.0822M56.0667 79.3307C59.011 93.9312 60.376 102.109 60.3392 116.618C53.9113 130.509 53.9719 132.698 55.6783 134.161C57.3041 135.662 58.9279 134.583 62.7344 131.636M65.259 78.8129C67.4598 93.5315 68.9984 102.645 69.2079 116.942C82.6576 123.47 80.6356 122.91 82.0254 124.257C83.4151 125.604 80.1558 129.826 69.9199 126.717M60.2601 160.528C70.5864 161.882 82.3987 160.862 95.7516 156.935L96.662 156.644M60.2601 160.528C60.2601 163.389 58.6959 185.009 52.0494 186.689C37.5877 183.548 25.4633 166.603 29.2613 161.417C31.981 159.854 42.1892 164.412 48.624 173.462M60.2601 160.528C57.0649 160.11 54.0121 159.464 51.0999 158.606M51.0999 158.606C9.71375 146.424 -3.27249 91.5635 7.47648 39.503C28.1226 -21.5647 76.0456 6.09385 76.0456 29.2477C74.8968 56.9162 76.3091 73.5531 83.7529 100.855M51.0999 158.606C49.3798 164.151 49 167.459 48.624 173.462M48.624 173.462C49.4223 174.271 50.2473 175.125 51.0999 176.025M96.7356 151.154C96.7143 153.161 96.6915 154.971 96.662 156.644M108.083 153.704C108.823 168.07 108.906 176.87 108.32 188.934C103.377 199.116 71.4999 176.025 75.1894 168.273C81.1662 165.247 95.0385 174.25 95.7516 172.921C96.3436 167.282 96.5509 162.931 96.662 156.644M108.083 153.704C107.959 151.301 107.817 148.743 107.656 145.989M108.083 153.704C131.176 153.704 147.917 129.315 142.895 117.737C142.062 115.617 141.108 113.616 140.042 111.756M96.7356 107.067L93.3709 105.46M96.7356 107.067L95.7516 109.785M96.7356 107.067C101.654 102.663 106.429 99.8626 110.951 98.42M85.4964 107.067C84.8816 104.932 84.3009 102.865 83.7529 100.855M83.7529 100.855C95.0899 85.2557 101.417 81.8687 117.674 89.1395M117.674 89.1395C118.377 87.2494 115.388 71.733 115.388 71.733C115.388 71.733 114.86 63.2494 114.201 51.8648C112.988 49.3683 105.718 39.7329 105.718 39.7329C114.303 34.7285 120.97 36.5242 125.366 47.8209C128.663 60.4802 134.333 64.8319 134.333 64.8319C151.124 45.667 162.948 51.3373 162.421 63.8208M117.674 89.1395C116.72 92.469 114.989 94.5468 110.951 98.42M107.208 135.023L103.521 139.919M116.014 138.711L118.271 143.861M124.883 136.899L128.697 140.745M164.355 100.26C163.277 102.768 162.149 104.565 158.421 109.052C151.487 111.567 147.482 112.278 140.042 111.756M162.421 63.8208C162.062 66.4848 161.068 68.4396 156.003 73.8428C152.332 75.4285 149.695 76.5454 144.946 78.4627M162.421 63.8208C168.036 64.4007 171.003 67.0779 167.762 72.9999M152.443 60.7879L149.937 63.4252C139.935 68.6866 139 72.5165 141.014 80.0406C142.484 79.4537 143.779 78.934 144.946 78.4627M144.946 78.4627C143.167 83.5595 143.011 85.8749 144.355 88.9637L148.478 87.2953M167.762 72.9999C166.334 75.6079 163.703 78.8452 159.564 82.8099L148.478 87.2953M167.762 72.9999C172.786 76.7374 173.027 79.8574 169.132 84.7678M148.478 87.2953C147.254 91.5173 147.142 93.6171 148.179 96.7879L153.488 94.6525M169.132 84.7678C167.797 86.4512 165.976 88.3449 163.696 90.5461L153.488 94.6525M169.132 84.7678C173.721 88.3342 174.957 90.8121 167.652 98.634L154.025 104.172C152.659 100.811 152.838 98.6353 153.488 94.6525M110.951 98.42C117.389 96.3666 123.316 97.0639 128.42 99.8024C133.048 102.285 137 106.446 140.042 111.756" stroke="black" stroke-width="4" stroke-linecap="round" stroke-linejoin="round"/>
<path fill-rule="evenodd" clip-rule="evenodd" d="M57.0674 51.925C64.4029 49.6992 68.6781 42.3863 66.6163 35.5912C64.5545 28.7961 56.9364 25.0919 49.6009 27.3177C42.2654 29.5434 37.9902 36.8563 40.052 43.6515C42.1138 50.4466 49.7319 54.1508 57.0674 51.925ZM61.9615 37.0036C63.3007 41.4173 60.5238 46.1674 55.7591 47.6131C52.7534 48.5251 49.6747 47.9044 47.475 46.2138C55.5692 46.5327 60.7991 37.0036 57.0674 31.8339C59.3752 32.7345 61.2206 34.5618 61.9615 37.0036Z" fill="black"/>
<path fill-rule="evenodd" clip-rule="evenodd" d="M13.8217 52.4351C21.3172 52.4351 27.3936 46.5546 27.3936 39.3007C27.3936 32.0468 21.3172 26.1663 13.8217 26.1663C6.32615 26.1663 0.249817 32.0468 0.249817 39.3007C0.249817 46.5546 6.32615 52.4351 13.8217 52.4351ZM22.4852 39.3007C22.4852 43.9312 18.6064 47.6849 13.8217 47.6849C11.9162 47.6849 10.1543 47.0895 8.72393 46.0805C17.8768 47.6849 22.4542 37.6392 16.9907 31.4951C20.2079 32.7194 22.4852 35.7526 22.4852 39.3007Z" fill="black"/>
</svg>
