<svg width="424" height="434" viewBox="0 0 424 434" fill="none" xmlns="http://www.w3.org/2000/svg">
<g clip-path="url(#clip0_1017_48)">
<path d="M261 368.615H336V159.769H310.615C310.615 368.615 261 334 261 368.615Z" fill="black"/>
<path d="M336 368.615H411C411 321.308 361.385 368.615 361.385 159.769H336V368.615Z" fill="black"/>
<path d="M261 646.692H353.308H411V368.615H336H261V646.692Z" fill="black"/>
<path d="M261 646.692H353.308H411M261 646.692C261 646.692 261 477.211 261 368.615M261 646.692V368.615M411 646.692C411 646.692 411 415.923 411 368.615M411 646.692V368.615M411 368.615C381.711 368.615 336 368.615 336 368.615M411 368.615C411 321.308 361.385 368.615 361.385 159.769H336M411 368.615H336M261 368.615C290.289 368.615 336 368.615 336 368.615M261 368.615C261 334 310.615 368.615 310.615 159.769H336M261 368.615H336M336 368.615V159.769" stroke="black" stroke-width="2"/>
<path fill-rule="evenodd" clip-rule="evenodd" d="M393.024 113.018L352.843 79.3014C349.782 76.733 344.644 77.8168 341.367 81.7221C338.09 85.6274 337.915 90.8754 340.976 93.4438V93.4438C343.895 92.8281 346.618 95.1129 346.518 98.0943V98.0943L347.018 97.989C349.534 97.4582 351.795 99.6277 351.368 102.164V102.164L351.962 102.105C355.054 101.803 357.707 104.29 357.603 107.395V107.395L358.197 107.337C361.289 107.035 363.942 109.522 363.838 112.627V112.627L364.432 112.569C367.524 112.267 370.177 114.754 370.073 117.859V117.859L371.332 117.851C374.532 117.829 377.108 120.474 377.001 123.672V123.672L378.351 123.54C380.941 123.287 383.088 125.522 382.73 128.1V128.1C385.779 129.321 389.869 128.034 392.633 124.739C395.91 120.834 396.085 115.586 393.024 113.018Z" fill="black"/>
<path d="M284.209 206.102C297.439 176.626 298.091 155.556 276.963 103L252.922 187.303L-84.7234 749.24C-158.235 871.584 -17.5517 1000.65 146.015 887.882C15.4218 954.63 -117.49 860.389 -53.4368 768.039L284.209 206.102Z" stroke="black" stroke-width="5"/>
</g>
<defs>
<clipPath id="clip0_1017_48">
<rect width="424" height="434" fill="white"/>
</clipPath>
</defs>
</svg>
