<svg width="424" height="434" viewBox="0 0 424 434" fill="none" xmlns="http://www.w3.org/2000/svg">
<path d="M147.125 321.188C148.282 330.853 151.384 336.395 165 346.688L158.125 321.188V123.688C158.125 80.6889 101.75 69.189 77 123.688C100.375 86.1887 149.337 89.9019 147.125 123.688V321.188Z" stroke="black" stroke-width="2"/>
<path d="M281 225.5H313.5V135H302.5C302.5 225.5 281 210.5 281 225.5Z" fill="black"/>
<path d="M313.5 225.5H346C346 205 324.5 225.5 324.5 135H313.5V225.5Z" fill="black"/>
<path d="M281 346H321H346V225.5H313.5H281V346Z" fill="black"/>
<path d="M281 346H321H346M281 346C281 346 281 272.558 281 225.5M281 346V225.5M346 346C346 346 346 246 346 225.5M346 346V225.5M346 225.5C333.308 225.5 313.5 225.5 313.5 225.5M346 225.5C346 205 324.5 225.5 324.5 135H313.5M346 225.5H313.5M281 225.5C293.692 225.5 313.5 225.5 313.5 225.5M281 225.5C281 210.5 302.5 225.5 302.5 135H313.5M281 225.5H313.5M313.5 225.5V135" stroke="black" stroke-width="2"/>
<path fill-rule="evenodd" clip-rule="evenodd" d="M324.865 126H302.135C300.404 126 299 127.791 299 130C299 132.209 300.404 134 302.135 134V134C302.933 132.983 304.473 132.983 305.27 134V134L305.407 133.826C306.094 132.949 307.449 133.039 308.014 134V134L308.195 133.815C309.137 132.853 310.71 132.94 311.541 134V134L311.722 133.815C312.664 132.853 314.237 132.94 315.068 134V134L315.249 133.815C316.191 132.853 317.764 132.94 318.595 134V134L319.01 133.646C320.067 132.748 321.658 132.909 322.514 134V134L322.925 133.58C323.714 132.774 325.049 132.918 325.649 133.874V133.874C327.001 133.43 328 131.864 328 130C328 127.791 326.596 126 324.865 126Z" fill="black"/>
</svg>
