<svg width="424" height="434" viewBox="0 0 424 434" fill="none" xmlns="http://www.w3.org/2000/svg">
<g clip-path="url(#clip0_1017_36)">
<path d="M261 368.615H336V159.769H310.615C310.615 368.615 261 334 261 368.615Z" fill="black"/>
<path d="M336 368.615H411C411 321.308 361.385 368.615 361.385 159.769H336V368.615Z" fill="black"/>
<path d="M261 646.692H353.308H411V368.615H336H261V646.692Z" fill="black"/>
<path d="M261 646.692H353.308H411M261 646.692C261 646.692 261 477.211 261 368.615M261 646.692V368.615M411 646.692C411 646.692 411 415.923 411 368.615M411 646.692V368.615M411 368.615C381.711 368.615 336 368.615 336 368.615M411 368.615C411 321.308 361.385 368.615 361.385 159.769H336M411 368.615H336M261 368.615C290.289 368.615 336 368.615 336 368.615M261 368.615C261 334 310.615 368.615 310.615 159.769H336M261 368.615H336M336 368.615V159.769" stroke="black" stroke-width="2"/>
<path fill-rule="evenodd" clip-rule="evenodd" d="M362.227 139H309.774C305.778 139 302.539 143.133 302.539 148.231C302.539 153.329 305.778 157.462 309.774 157.462V157.462C311.614 155.114 315.168 155.114 317.008 157.462V157.462L317.323 157.06C318.91 155.036 322.036 155.245 323.339 157.462V157.462L323.757 157.035C325.931 154.816 329.562 155.016 331.478 157.462V157.462L331.896 157.035C334.071 154.816 337.701 155.016 339.618 157.462V157.462L340.036 157.035C342.21 154.816 345.84 155.016 347.757 157.462V157.462L348.716 156.646C351.154 154.572 354.827 154.943 356.801 157.462V157.462L357.75 156.493C359.571 154.633 362.652 154.966 364.035 157.171V157.171C367.156 156.146 369.462 152.532 369.462 148.231C369.462 143.133 366.222 139 362.227 139Z" fill="black"/>
<path d="M253.362 276.92C276.277 254.143 284.437 234.706 283.546 178.069L230.891 248.157L-285.709 651.769C-398.182 739.643 -313.095 910.552 -119.98 863.892C-265.82 879.406 -356.131 743.794 -263.237 680.531L253.362 276.92Z" stroke="black" stroke-width="5"/>
</g>
<defs>
<clipPath id="clip0_1017_36">
<rect width="424" height="434" fill="white"/>
</clipPath>
</defs>
</svg>
